<svg width="369" height="119" viewBox="0 0 369 119" fill="none" xmlns="http://www.w3.org/2000/svg">
<path d="M39.1992 39.777L77.7328 59.5215L116.266 39.777L39.1992 0.288086V39.777Z" fill="#FD7D02"/>
<path d="M39.1992 79.2655V118.754L116.266 79.2655L77.7328 59.521L39.1992 79.2655Z" fill="url(#paint0_linear_441_2342)"/>
<path d="M116.27 79.2663V39.7773L77.7363 59.5218L116.27 79.2663Z" fill="#2CB72C"/>
<path d="M39.1957 39.7773V79.2663L0.662109 59.5218L39.1957 39.7773Z" fill="#FF9300"/>
<path fill-rule="evenodd" clip-rule="evenodd" d="M170.354 18.7002H155.633V53.3085H170.354C173.925 53.3085 177.064 52.6429 179.879 51.2009C182.693 49.7589 184.858 47.7623 186.373 45.1001C187.888 42.4379 188.646 39.443 188.646 36.0043C188.646 32.5657 187.888 29.5707 186.373 26.9086C184.858 24.2464 182.693 22.2498 179.879 20.8077C177.173 19.3657 173.925 18.7002 170.354 18.7002ZM176.63 46.3242C174.79 47.3225 172.626 47.7662 170.136 47.7662H161.91V24.2503H170.136C172.626 24.2503 174.79 24.694 176.63 25.6923C178.47 26.5797 179.986 28.0218 180.96 29.7965C181.934 31.5713 182.475 33.6789 182.475 36.0083C182.475 38.3377 181.934 40.4452 180.96 42.22C179.986 43.9948 178.47 45.3259 176.63 46.3242Z" fill="#0E2944"/>
<path fill-rule="evenodd" clip-rule="evenodd" d="M197.719 41.9941H217.852C217.899 41.6537 217.926 41.3346 217.95 41.0461C217.981 40.6767 218.007 40.3576 218.068 40.1084C218.068 37.4462 217.527 35.1168 216.444 33.0093C215.254 31.0126 213.738 29.3488 211.79 28.2395C209.842 27.1303 207.569 26.5757 205.079 26.5757C202.59 26.5757 200.317 27.2412 198.26 28.3505C196.203 29.4597 194.688 31.1236 193.497 33.1202C192.307 35.1168 191.766 37.4462 191.766 39.9975C191.766 42.6597 192.307 44.8781 193.497 46.9857C194.688 48.9823 196.312 50.6462 198.477 51.7554C200.641 52.9756 203.131 53.5302 205.945 53.5302C208.11 53.5302 210.167 53.1974 211.898 52.421C213.63 51.6445 215.037 50.6462 216.228 49.2042L212.981 45.4328C211.249 47.3185 208.868 48.3168 206.053 48.3168C203.889 48.3168 202.048 47.7622 200.533 46.6529C199.018 45.4328 198.044 43.8798 197.719 41.9941ZM197.72 37.8905C197.936 36.0048 198.802 34.4519 200.101 33.2317C201.508 32.1225 203.132 31.4569 204.972 31.4569C206.92 31.4569 208.544 32.0115 209.843 33.2317C211.141 34.4519 212.007 36.0048 212.224 37.8905H197.72Z" fill="#0E2944"/>
<path d="M222.842 16.5908H228.903V53.1957H222.842V16.5908Z" fill="#0E2944"/>
<path d="M252.404 51.7542C251.646 52.3088 250.889 52.7525 249.806 53.0853C248.832 53.418 247.75 53.529 246.559 53.529C243.745 53.529 241.58 52.7525 240.065 51.3105C238.549 49.7575 237.792 47.65 237.792 44.655V32.0097H233.57V27.1291H237.792V21.1392H243.853V27.1291H250.781V32.0097H243.853V44.5441C243.853 45.8752 244.178 46.7626 244.719 47.4281C245.369 48.0937 246.234 48.4265 247.317 48.4265C248.616 48.4265 249.806 48.0937 250.672 47.3172L252.404 51.7542Z" fill="#0E2944"/>
<path fill-rule="evenodd" clip-rule="evenodd" d="M277.933 37.779C277.933 34.0076 276.959 31.2345 274.902 29.3488C272.954 27.4631 270.031 26.5757 266.243 26.5757C264.078 26.5757 262.021 26.9085 260.181 27.4631C258.233 28.0177 256.609 28.9051 255.31 29.9034L257.692 34.3404C258.666 33.5639 259.857 32.8983 261.264 32.4547C262.671 32.011 264.078 31.7891 265.485 31.7891C267.542 31.7891 269.165 32.2328 270.248 33.2311C271.33 34.2294 271.871 35.5605 271.871 37.4462V37.8899H265.269C261.588 37.8899 258.882 38.5555 257.151 39.9975C255.419 41.4395 254.553 43.3252 254.553 45.6546C254.553 47.2075 254.986 48.5386 255.743 49.7588C256.501 50.868 257.692 51.8663 259.099 52.5319C260.614 53.1974 262.238 53.5302 264.186 53.5302C266.134 53.5302 267.758 53.1974 269.165 52.6428C270.464 51.9773 271.546 51.0899 272.304 49.9806V53.1974H277.933V37.779ZM271.877 44.9871C271.336 46.3182 270.578 47.3165 269.387 47.9821C268.305 48.6476 266.898 49.0913 265.382 49.0913C263.867 49.0913 262.676 48.7585 261.81 48.093C260.945 47.4274 260.512 46.54 260.512 45.4308C260.512 43.1014 262.243 41.8812 265.707 41.8812H271.877V44.9871Z" fill="#0E2944"/>
<path d="M283.806 52.3119C283.048 51.5355 282.615 50.5372 282.615 49.4279C282.615 48.2078 282.94 47.2094 283.698 46.433C284.455 45.6565 285.429 45.3237 286.512 45.3237C287.594 45.3237 288.568 45.6565 289.326 46.433C290.084 47.2094 290.409 48.2078 290.409 49.4279C290.409 50.6481 289.976 51.5355 289.218 52.3119C288.46 53.0884 287.486 53.4212 286.404 53.4212C285.538 53.5321 284.564 53.0884 283.806 52.3119Z" fill="#0E2944"/>
<path d="M178.905 98.1216V100.34H155.633V65.8428H178.147V68.0613H158.122V81.7049H176.09V83.9234H158.122V98.1216H178.905Z" fill="#0E2944"/>
<path d="M202.597 100.447L193.938 88.9112L185.278 100.447H182.572L192.53 87.1364L183.113 74.7129H185.819L193.938 85.3616L202.056 74.7129H204.762L195.345 87.1364L205.411 100.447H202.597Z" fill="#0E2944"/>
<path d="M213.119 98.8975C211.171 97.7883 209.655 96.2353 208.573 94.2387C207.49 92.2421 206.949 90.0236 206.949 87.4723C206.949 84.9211 207.49 82.7026 208.573 80.706C209.655 78.7093 211.171 77.1564 213.119 76.0472C215.067 74.9379 217.232 74.3833 219.613 74.3833C221.67 74.3833 223.51 74.827 225.134 75.6035C226.757 76.3799 228.164 77.6001 229.139 79.153L227.407 80.4841C226.541 79.153 225.35 78.2656 224.051 77.6001C222.752 76.9346 221.237 76.6018 219.613 76.6018C217.665 76.6018 215.933 77.0455 214.31 77.9329C212.794 78.8203 211.495 80.1513 210.629 81.7043C209.763 83.3681 209.331 85.2538 209.331 87.3614C209.331 89.469 209.763 91.3547 210.629 93.0185C211.495 94.6824 212.686 95.9025 214.31 96.7899C215.825 97.6773 217.665 98.121 219.613 98.121C221.237 98.121 222.644 97.7883 224.051 97.1227C225.35 96.4572 226.541 95.5698 227.407 94.2387L229.139 95.5698C228.164 97.1227 226.757 98.3429 225.134 99.1193C223.51 99.8958 221.67 100.34 219.613 100.34C217.232 100.561 215.067 100.007 213.119 98.8975Z" fill="#0E2944"/>
<path d="M253.686 77.2671C255.526 79.1528 256.392 81.815 256.392 85.3645V100.339H254.011V85.4755C254.011 82.5914 253.253 80.373 251.846 78.82C250.439 77.2671 248.382 76.6016 245.893 76.6016C242.97 76.6016 240.589 77.4889 238.965 79.2637C237.234 81.0385 236.368 83.4788 236.368 86.5847V100.339H233.986V63.7344H236.368V79.9293C237.234 78.1545 238.532 76.8234 240.264 75.8251C241.996 74.8268 243.944 74.3831 246.326 74.3831C249.356 74.494 251.846 75.3814 253.686 77.2671Z" fill="#0E2944"/>
<path fill-rule="evenodd" clip-rule="evenodd" d="M282.481 84.1445C282.481 80.9277 281.615 78.5983 279.992 76.9345C278.26 75.2706 275.879 74.4941 273.064 74.4941C271.116 74.4941 269.384 74.8269 267.544 75.4925C265.704 76.158 264.297 77.0454 262.998 78.1546L264.189 79.9294C265.271 78.9311 266.57 78.1546 268.085 77.6C269.601 77.0454 271.224 76.7126 272.848 76.7126C275.229 76.7126 277.069 77.3782 278.368 78.5983C279.667 79.8185 280.316 81.5933 280.316 84.0336V86.1412H271.657C268.41 86.1412 266.029 86.8067 264.513 88.1378C262.998 89.4689 262.24 91.2437 262.24 93.3512C262.24 95.5697 262.998 97.3445 264.622 98.6756C266.245 100.007 268.41 100.672 271.224 100.672C273.389 100.672 275.229 100.339 276.744 99.452C278.26 98.5646 279.45 97.4554 280.208 95.9025V100.45H282.481V84.1445ZM280.005 92.7952C279.356 94.6809 278.165 96.1229 276.758 97.1213C275.351 98.1196 273.511 98.5633 271.454 98.4524C269.181 98.4524 267.449 98.0087 266.259 97.0103C265.068 96.012 264.419 94.6809 264.419 93.0171C264.419 91.4641 264.96 90.1331 266.042 89.2457C267.233 88.3583 268.965 87.9146 271.454 87.9146H280.005V92.7952Z" fill="#0E2944"/>
<path d="M308.018 77.2673C309.858 79.153 310.724 81.8152 310.724 85.3648V100.34H308.343V85.4757C308.343 82.5917 307.585 80.3732 306.178 78.8203C304.771 77.2673 302.714 76.6018 300.225 76.6018C297.302 76.6018 294.921 77.4892 293.297 79.264C291.566 81.0387 290.7 83.4791 290.7 86.5849V100.34H288.318V74.6051H290.591V80.1513C291.457 78.3766 292.756 76.9346 294.488 75.9362C296.22 74.9379 298.276 74.3833 300.55 74.3833C303.689 74.4942 306.178 75.3816 308.018 77.2673Z" fill="#0E2944"/>
<path fill-rule="evenodd" clip-rule="evenodd" d="M340.278 97.6741V74.9347H338.005V80.7028C336.923 78.8171 335.516 77.2641 333.676 76.2658C331.836 75.2675 329.671 74.7129 327.398 74.7129C325.016 74.7129 322.96 75.2675 321.012 76.2658C319.063 77.3751 317.548 78.8171 316.465 80.7028C315.383 82.5885 314.842 84.696 314.842 87.1364C314.842 89.4658 315.383 91.6843 316.465 93.57C317.656 95.4557 319.063 96.8977 321.012 98.0069C322.96 99.0052 325.016 99.5599 327.398 99.5599C329.671 99.5599 331.727 99.0052 333.567 98.0069C335.407 97.0086 336.923 95.5666 337.897 93.6809V98.0069C337.897 101.446 337.139 103.886 335.516 105.55C334 107.214 331.511 107.99 328.155 107.99C326.207 107.99 324.367 107.657 322.527 106.992C320.687 106.326 319.28 105.439 317.981 104.219L316.682 106.104C317.981 107.325 319.604 108.323 321.661 109.099C323.718 109.876 325.882 110.209 328.155 110.209C332.16 110.209 335.191 109.099 337.248 107.103C339.304 105.106 340.278 101.889 340.278 97.6741ZM336.607 92.2428C335.741 93.7957 334.551 95.0159 332.927 95.9033C331.303 96.7907 329.571 97.2344 327.623 97.2344C325.675 97.2344 323.835 96.7907 322.319 95.9033C320.696 95.0159 319.505 93.7957 318.639 92.2428C317.773 90.6899 317.34 88.9151 317.34 86.9184C317.34 84.9218 317.773 83.147 318.639 81.5941C319.505 80.0412 320.804 78.821 322.319 77.9336C323.943 77.0462 325.675 76.6025 327.623 76.6025C329.571 76.6025 331.303 77.0462 332.927 77.9336C334.551 78.821 335.741 80.0412 336.607 81.5941C337.473 83.147 337.906 84.9218 337.906 86.9184C337.906 88.9151 337.473 90.6899 336.607 92.2428Z" fill="#0E2944"/>
<path fill-rule="evenodd" clip-rule="evenodd" d="M347.099 88.1392H368.639L368.856 87.5845C368.856 85.1442 368.423 82.9257 367.34 80.9291C366.258 78.9325 364.851 77.3795 363.011 76.2703C361.17 75.1611 359.114 74.6064 356.841 74.6064C354.568 74.6064 352.511 75.1611 350.671 76.2703C348.831 77.3795 347.424 78.9325 346.342 80.9291C345.367 82.9257 344.826 85.1442 344.826 87.6955C344.826 90.2467 345.367 92.4652 346.45 94.4618C347.532 96.4585 349.048 98.0114 350.996 99.1206C352.944 100.23 355.217 100.784 357.707 100.784C359.655 100.784 361.495 100.452 363.119 99.6753C364.742 98.8988 366.15 97.9005 367.232 96.5694L365.825 94.9055C364.959 96.0148 363.768 97.0131 362.361 97.5677C360.954 98.1223 359.439 98.4551 357.815 98.4551C355.758 98.4551 354.027 98.0114 352.403 97.124C350.779 96.2366 349.589 95.0164 348.615 93.4635C347.64 91.9106 347.207 90.1358 347.099 88.1392ZM348.614 81.2617C349.48 79.7087 350.562 78.5995 351.969 77.823C353.377 77.0466 354.892 76.6029 356.732 76.7138C358.464 76.7138 360.087 77.1575 361.495 77.934C362.902 78.8214 364.092 79.9306 364.958 81.3726C365.824 82.8146 366.257 84.3676 366.365 86.2533H347.099C347.315 84.3676 347.748 82.7037 348.614 81.2617Z" fill="#0E2944"/>
<defs>
<linearGradient id="paint0_linear_441_2342" x1="89.5761" y1="42.8829" x2="46.3384" y2="81.8289" gradientUnits="userSpaceOnUse">
<stop stop-color="#168016"/>
<stop offset="1" stop-color="#2CB72C"/>
</linearGradient>
</defs>
</svg>
